<svg width="35" height="42" viewBox="0 0 35 42" fill="none" xmlns="http://www.w3.org/2000/svg">
<path d="M27.36 5.032C27.36 3.79467 27.6373 2.728 28.192 1.832C28.7893 0.893332 29.664 0.424 30.816 0.424C31.7973 0.424 32.672 0.616 33.44 1C34.208 1.384 34.592 2.024 34.592 2.92C34.592 4.66933 34.5067 7.12267 34.336 10.28C34.1653 13.352 34.08 15.6347 34.08 17.128C34.08 19.4747 34.1653 22.6107 34.336 26.536C34.5067 30.2907 34.592 33.0427 34.592 34.792C34.592 36.2 34.5707 37.2453 34.528 37.928C34.528 38.6107 34.144 39.2933 33.376 39.976C32.6507 40.616 31.52 40.936 29.984 40.936C29.1733 40.936 28.4693 40.808 27.872 40.552C27.3173 40.2533 26.9333 39.9333 26.72 39.592C24.7147 37.16 21.792 33.0213 17.952 27.176C13.6427 20.648 10.1227 15.656 7.392 12.2C7.73333 15.272 7.904 19.0267 7.904 23.464C7.904 25.4267 7.86133 27.9867 7.776 31.144C7.73333 34.2587 7.648 36.3067 7.52 37.288C7.34933 38.5253 6.96533 39.4853 6.368 40.168C5.81333 40.808 4.91733 41.128 3.68 41.128C2.74133 41.128 2.03733 40.872 1.568 40.36C1.14133 39.8053 0.885334 38.8667 0.8 37.544C0.757333 35.7947 0.864 33.1707 1.12 29.672C1.16267 29.1173 1.22667 28.1573 1.312 26.792C1.39733 25.4267 1.44 24.2107 1.44 23.144C1.44 20.2 1.29067 16.8293 0.992 13.032C0.736 8.85067 0.608 5.75733 0.608 3.752C0.608 2.728 0.970667 1.93867 1.696 1.384C2.464 0.829332 3.33867 0.551998 4.32 0.551998C5.17333 0.551998 6.06933 0.765331 7.008 1.192C10.6773 5.8 15.648 12.6693 21.92 21.8L27.936 31.016C27.9787 30.3333 28 29.3733 28 28.136C28 25.96 27.9573 23.6133 27.872 21.096C27.7867 18.5787 27.7227 16.872 27.68 15.976C27.4667 11.8373 27.36 8.18933 27.36 5.032Z" fill="black"/>
</svg>
